<?xml version="1.0" encoding="UTF-8"?>
<svg xmlns="http://www.w3.org/2000/svg" version="1.1" viewBox="0 0 800 269">
  <defs>
    <style>
      .cls-1 {
        fill: #3780ff;
      }

      .cls-2 {
        fill: #fa3913;
      }

      .cls-3 {
        fill: #38b137;
      }

      .cls-4 {
        fill: #fcbd06;
      }
    </style>
  </defs>
  <!-- Generator: Adobe Illustrator 28.6.0, SVG Export Plug-In . SVG Version: 1.2.0 Build 709)  -->
  <g>
    <g id="Layer_1">
      <g>
        <path class="cls-1" d="M98.5,3.9h7.1c24.7.5,49,10.5,66.4,28.1-6.4,6.6-13,12.9-19.3,19.5-9.8-8.9-21.6-15.7-34.5-18.1-19.1-4-39.6-.4-55.6,10.5-17.4,11.4-29.3,30.7-31.8,51.4-2.8,20.4,3,41.9,16.2,57.7,12.8,15.4,32.2,25.1,52.3,25.8,18.8,1.1,38.4-4.7,52.1-17.9,10.7-9.3,15.7-23.4,17.3-37-22.3,0-44.6.1-66.8,0v-27.7h93.8c4.8,29.7-2.1,63.1-24.7,84.3-15,15-35.8,23.9-57,25.6-20.5,2-41.7-1.9-60-11.8-21.9-11.7-39.3-31.4-47.9-54.6-8.1-21.3-8.2-45.5-.7-67,6.8-19.6,20-36.9,36.9-49C58.7,11.7,78.4,5.1,98.5,3.9Z"/>
        <path class="cls-3" d="M636.8,10.9h28.7v191.7c-9.5,0-19.2.1-28.7-.1.1-63.8,0-127.7,0-191.5Z"/>
        <path class="cls-2" d="M259.7,77.4c17.7-3.4,36.9.4,51.5,11,13.3,9.4,22.6,24.2,25.4,40.3,3.6,18.7-.9,39.1-13,53.8-13,16.5-34.4,25.4-55.2,24-19.1-1.1-37.6-10.6-48.9-26.2-12.8-17.2-15.8-40.8-8.9-60.9,7-21.6,26.7-38.1,49-42M263.8,102.9c-7.2,1.9-14,6-18.8,11.9-13,15.6-12.2,40.9,2.1,55.4,8.2,8.3,20.5,12.2,31.9,9.9,10.6-1.9,19.9-9,25-18.4,8.9-16,6.3-38-7.2-50.5-8.7-8.1-21.5-11.4-33-8.5h0Z"/>
        <path class="cls-4" d="M402,77.4c20.3-3.9,42.4,1.7,57.6,16,24.7,22.1,27.4,63.6,6.3,89.1-12.8,16.1-33.4,25-53.8,24-19.5-.5-38.7-10.2-50.2-26.2-13-17.6-15.8-41.7-8.5-62.3,7.4-20.9,26.7-36.9,48.6-40.7M406,102.9c-7.2,1.9-14,6-18.8,11.8-12.9,15.3-12.3,40.3,1.5,54.9,8.2,8.7,20.9,13,32.8,10.6,10.5-2,19.9-9,25-18.4,8.7-16.1,6.2-38.1-7.5-50.6-8.7-8.1-21.5-11.3-32.9-8.3h0Z"/>
        <path class="cls-1" d="M522.7,85.1c15.4-9.7,36-12.3,52.6-4,5.2,2.3,9.5,6.2,13.7,10.1.1-3.6,0-7.4.1-11.1,9,.1,18,0,27.1.1v118.4c-.1,17.9-4.7,36.8-17.6,49.8-14.1,14.4-35.7,18.8-55.2,15.8-20.8-3.1-38.9-18.3-47-37.4,8.1-3.9,16.5-7,24.8-10.6,4.7,11,14.2,20.4,26.2,22.6s25.8-.8,33.6-10.7c8.3-10.2,8.3-24.2,7.9-36.6-6.2,6-13.3,11.4-21.9,13.4-18.7,5.2-39.2-1.2-53.6-13.8-14.5-12.6-23.1-32.1-22.3-51.4.4-21.9,12.8-43,31.4-54.4M550.5,102.3c-8.2,1.3-15.8,5.9-21.1,12.2-12.6,15-12.6,39.1.1,53.8,7.2,8.7,18.9,13.6,30.2,12.3,10.6-1.1,20.4-7.8,25.6-17,8.9-15.7,7.4-37-4.6-50.7-7.4-8.5-19.2-12.6-30.3-10.6h0Z"/>
        <path class="cls-2" d="M700,92c16.1-15,40.9-20.1,61.6-12.2,19.6,7.4,32.1,26,38.4,45.2-29.1,12.1-58.1,24-87.2,36.1,4,7.7,10.2,14.6,18.5,17.4,11.7,4.2,25.6,2.7,35.4-5.1,3.9-3,7-6.8,9.9-10.6,7.4,5,14.8,9.8,22.1,14.8-10.5,15.7-28.1,26.7-47,28.5-20.9,2.6-43.2-5.5-56.8-21.9-22.3-25.8-20.1-69,5-92.2M714.4,116.8c-4.6,6.6-6.4,14.6-6.3,22.6,19.5-8.1,38.9-16.1,58.4-24.3-3.2-7.5-11-12.1-18.9-13.3-12.8-2.3-26,4.6-33.2,15Z"/>
      </g>
    </g>
  </g>
</svg>